Coordinates
version=1
nRows=26
nColumns=24
inDegrees=yes

Units are S.I. units (second, meters, Newtons, ...)
Angles are in degrees.

endheader
time	pelvis_tilt	pelvis_list	pelvis_rotation	pelvis_tx	pelvis_ty	pelvis_tz	hip_flexion_r	hip_adduction_r	hip_rotation_r	knee_angle_r	ankle_angle_r	subtalar_angle_r	mtp_angle_r	hip_flexion_l	hip_adduction_l	hip_rotation_l	knee_angle_l	ankle_angle_l	subtalar_angle_l	mtp_angle_l	lumbar_extension	lumbar_bending	lumbar_rotation
      3.60000000	     -6.04845222	     -6.80246775	     -8.69499426	     -2.55005166	      0.67348412	      0.11946735	    -15.06140324	      9.30032941	     10.54773782	    -17.56273976	     14.39549473	      6.85566317	      0.00000000	     27.20873105	     -7.20416772	     10.72090515	      2.31527467	      1.61324535	    -24.50975826	      0.00000000	    -14.05124091	      4.02202040	      7.14573964
      3.61000000	     -5.42039170	     -5.49598031	     -8.43800585	     -2.53221478	      0.67440333	      0.11746060	    -14.48131443	      7.49758083	      8.25446551	    -21.43198483	     12.05121061	      8.63148085	      0.00000000	     27.15719840	     -4.96238820	     11.72392411	     -1.00469213	      0.53396204	    -25.20208134	      0.00000000	    -14.05085863	      2.50343707	      6.76967958
      3.62000000	     -5.00721319	     -4.07453679	     -8.15347632	     -2.51444745	      0.67516012	      0.11536659	    -13.29698155	      5.57698594	      6.07355030	    -25.75083898	      9.06708840	      9.93153999	      0.00000000	     27.42265680	     -2.55409368	     12.35008469	     -4.48810709	     -0.55292331	    -25.41113187	      0.00000000	    -13.77757428	      0.90878888	      6.28852290
      3.63000000	     -4.65385262	     -2.60048985	     -7.86106680	     -2.49690420	      0.67589568	      0.11335619	    -11.74184064	      3.60814077	      4.26701796	    -30.35724245	      5.48845113	     10.58246470	      0.00000000	     27.75757411	     -0.11324030	     12.50568677	     -7.94186442	     -1.39580353	    -25.08352352	      0.00000000	    -13.48184230	     -0.76147620	      5.77949124
      3.64000000	     -4.42696616	     -1.13452380	     -7.58485818	     -2.47974680	      0.67647760	      0.11154943	     -9.76327437	      1.69887815	      2.92291413	    -35.17203153	      1.58001054	     10.66121004	      0.00000000	     28.18609385	      2.21705044	     12.14469883	    -11.25361939	     -1.76106724	    -24.17581440	      0.00000000	    -13.12344071	     -2.44978642	      5.27956057
      3.65000000	     -4.39931036	      0.22304441	     -7.46253023	     -2.46313816	      0.67687741	      0.11024896	     -7.29521360	      0.03045531	      2.26996890	    -40.09379430	     -2.45510660	     10.09840464	      0.00000000	     28.68921909	      4.19316411	     11.19284353	    -14.26184719	     -1.45771473	    -22.70927648	      0.00000000	    -12.63585766	     -4.06842489	      4.95825762
      3.66000000	     -4.25915173	      1.49049256	     -7.41003940	     -2.44700982	      0.67743592	      0.10918321	     -4.74190515	     -1.45824118	      2.05770645	    -44.96131542	     -6.16343120	      9.26133058	      0.00000000	     28.74678394	      5.94395965	     10.25871967	    -16.65174961	     -0.94953646	    -21.69882216	      0.00000000	    -12.40640983	     -5.60767090	      4.66115439
      3.67000000	     -4.14129583	      2.74572194	     -7.35272879	     -2.43134505	      0.67805435	      0.10831420	     -2.01064472	     -2.77441442	      2.24741709	    -49.70230978	     -8.95737737	      8.57491281	      0.00000000	     28.49127759	      7.57875957	      9.40417778	    -18.40298821	     -0.26931804	    -20.95260393	      0.00000000	    -12.25147661	     -7.16556686	      4.31985898
      3.68000000	     -4.24389570	      3.91444089	     -7.21558258	     -2.41604501	      0.67856564	      0.10746939	      1.06000323	     -3.82456122	      2.65862878	    -54.25421770	    -10.61478332	      8.21012390	      0.00000000	     28.11128650	      9.06170009	      8.72898632	    -19.52906989	      0.74398717	    -20.28339414	      0.00000000	    -11.87635433	     -8.56038853	      3.90128950
      3.69000000	     -4.01975062	      5.01337630	     -7.16097378	     -2.40106654	      0.67983105	      0.10681770	      3.82964977	     -4.69879821	      3.31001160	    -58.44356346	    -11.17686940	      7.89209688	      0.00000000	     26.88436156	     10.46100424	      8.35483327	    -19.79365950	      1.63319827	    -20.23213544	      0.00000000	    -12.00288721	     -9.90187923	      3.42983290
      3.70000000	     -3.93567283	      5.97863353	     -7.07618812	     -2.38621462	      0.68126466	      0.10626484	      6.72958397	     -5.26488878	      4.09804416	    -62.23111099	    -10.54906121	      7.80883360	      0.00000000	     25.37106848	     11.70815480	      8.46909735	    -19.38624375	      2.59283505	    -20.38450988	      0.00000000	    -11.93771261	    -11.05085213	      2.90302969
      3.71000000	     -3.93625942	      6.73400059	     -7.04083603	     -2.37134312	      0.68303343	      0.10579258	      9.65546724	     -5.48657139	      4.98005122	    -65.49166721	     -9.11697002	      7.78059407	      0.00000000	     23.46377414	     12.72343522	      9.20199808	    -18.25462707	      3.30676675	    -21.06037428	      0.00000000	    -11.69922171	    -11.89754935	      2.49671614
      3.72000000	     -3.80555592	      7.23678363	     -6.92964237	     -2.35648348	      0.68533542	      0.10524464	     12.28866867	     -5.42457646	      5.67902860	    -68.12940635	     -7.10471907	      7.60008843	      0.00000000	     21.02556383	     13.52836859	     10.61640124	    -16.56919600	      3.46733257	    -22.40701869	      0.00000000	    -11.65851793	    -12.40718897	      2.00134768
      3.73000000	     -3.54938170	      7.41240125	     -6.74340844	     -2.34160981	      0.68810875	      0.10469049	     14.59017477	     -5.02652564	      6.13089832	    -70.08821345	     -4.85084570	      7.07110430	      0.00000000	     18.12675537	     13.98449269	     12.69141044	    -14.46522709	      3.07039569	    -24.35539045	      0.00000000	    -11.81193114	    -12.51484828	      1.41760330
      3.74000000	     -3.35735598	      7.22303323	     -6.40648161	     -2.32681343	      0.69099189	      0.10410153	     16.74882936	     -4.26196477	      6.27360418	    -71.39139154	     -2.49220120	      6.28102517	      0.00000000	     15.16882420	     13.97813712	     15.07527658	    -12.26423664	      2.47438881	    -26.32752836	      0.00000000	    -11.94639385	    -12.16494835	      0.75905315
      3.75000000	     -3.20565910	      6.69382561	     -6.11394442	     -2.31206430	      0.69390563	      0.10367462	     18.77896311	     -3.14804785	      6.24666495	    -72.04716157	     -0.27403819	      5.08351507	      0.00000000	     12.19883607	     13.46545559	     17.42213411	     -9.99174745	      1.64158033	    -28.43692780	      0.00000000	    -12.02662170	    -11.41588468	      0.34045958
      3.76000000	     -3.21523365	      5.90075953	     -5.67866794	     -2.29757425	      0.69653753	      0.10320790	     20.84009102	     -1.81403085	      5.93126981	    -72.14757180	      1.71624882	      3.62350579	      0.00000000	      9.51605517	     12.56546793	     19.64093476	     -7.89093140	      0.90793384	    -30.19442965	      0.00000000	    -12.02461877	    -10.34445151	     -0.21380735
      3.77000000	     -3.34351642	      4.94563898	     -5.08068373	     -2.28325626	      0.69884793	      0.10262019	     22.87841579	     -0.45605278	      5.26005676	    -71.67643505	      3.45270820	      1.82078424	      0.00000000	      7.12648295	     11.42294689	     21.58216157	     -6.00714273	      0.35752271	    -31.48282683	      0.00000000	    -11.95152322	     -9.06850155	     -0.79459551
      3.78000000	     -3.51787875	      3.90078635	     -4.45430830	     -2.26912874	      0.70078699	      0.10201985	     24.86651036	      0.88628160	      4.44110318	    -70.70641950	      4.84673292	     -0.15825267	      0.00000000	      4.93993248	     10.12272451	     23.19854426	     -4.26627439	     -0.06718380	    -32.54669004	      0.00000000	    -11.88022151	     -7.69100975	     -1.44197038
      3.79000000	     -3.73024530	      2.85822828	     -3.73825700	     -2.25521037	      0.70231426	      0.10136518	     26.77509729	      2.08461917	      3.46139963	    -69.23785594	      5.99465608	     -2.23386684	      0.00000000	      2.96313288	      8.78768213	     24.54696530	     -2.69310670	     -0.35631378	    -33.26540960	      0.00000000	    -11.84103049	     -6.32828388	     -2.14546303
      3.80000000	     -3.99417195	      1.92641344	     -3.02830140	     -2.24150806	      0.70329005	      0.10079148	     28.65407397	      3.08322246	      2.47603983	    -67.34450575	      6.81731872	     -4.41033203	      0.00000000	      1.20481255	      7.54658243	     25.52535410	     -1.27117827	     -0.37982969	    -33.59173436	      0.00000000	    -11.79169516	     -5.13098795	     -2.91345920
      3.81000000	     -4.21008715	      1.11372208	     -2.22652404	     -2.22788377	      0.70381646	      0.10011696	     30.34042806	      3.78702682	      1.38858219	    -65.02015226	      7.46347430	     -6.35763445	      0.00000000	     -0.51929975	      6.41363175	     26.42753027	      0.09901225	     -0.36593480	    -33.83073346	      0.00000000	    -11.81616641	     -4.09260108	     -3.66897187
      3.82000000	     -4.16422062	      0.38898682	     -1.34260741	     -2.21435869	      0.70419527	      0.09930864	     31.53143693	      4.26096913	      0.28270501	    -62.19209762	      8.11949774	     -7.89998845	      0.00000000	     -2.43661471	      5.37620197	     27.31920786	      1.39750150	     -0.65715292	    -34.47367332	      0.00000000	    -12.24028934	     -3.13996142	     -4.59620312
      3.83000000	     -4.27362015	     -0.06527647	     -0.46483422	     -2.20095633	      0.70387037	      0.09862298	     32.75059702	      4.43402841	     -0.69098357	    -58.98784465	      8.57659081	     -9.28272699	      0.00000000	     -4.03889736	      4.64300761	     27.88162036	      2.48280495	     -0.54910306	    -34.56102808	      0.00000000	    -12.47799503	     -2.55049408	     -5.56042461
      3.84000000	     -4.27861276	     -0.35826175	      0.43766387	     -2.18754394	      0.70319960	      0.09795980	     33.63401958	      4.39115191	     -1.59435107	    -55.33955233	      9.06921853	    -10.19534808	      0.00000000	     -5.69002386	      4.07991693	     28.38010999	      3.46707336	     -0.35180672	    -34.62393569	      0.00000000	    -12.85764754	     -2.16998205	     -6.57839100
      3.85000000	     -4.25310227	     -0.49641736	      1.36184685	     -2.17408501	      0.70221990	      0.09733835	     34.22160762	      4.17434339	     -2.38965291	    -51.20622076	      9.61151582	    -10.59079011	      0.00000000	     -7.29621420	      3.68366199	     28.82890709	      4.28975859	     -0.11651375	    -34.60123247	      0.00000000	    -13.27103478	     -1.99103540	     -7.57943690
